<?xml version="1.0" encoding="UTF-8" standalone="no"?>
<!-- Created with Inkscape (http://www.inkscape.org/) -->

<svg
   version="1.1"
   id="svg2"
   width="700.4317"
   height="467.13065"
   viewBox="0 0 700.4317 467.13065"
   sodipodi:docname="not-watched.svg"
   inkscape:version="1.1.2 (0a00cf5339, 2022-02-04)"
   inkscape:export-filename="/home/hbarbosa/letterboxd/abstract/public/not-watched-color.png"
   inkscape:export-xdpi="96"
   inkscape:export-ydpi="96"
   xmlns:inkscape="http://www.inkscape.org/namespaces/inkscape"
   xmlns:sodipodi="http://sodipodi.sourceforge.net/DTD/sodipodi-0.dtd"
   xmlns="http://www.w3.org/2000/svg"
   xmlns:svg="http://www.w3.org/2000/svg">
  <defs
     id="defs6" />
  <sodipodi:namedview
     id="namedview4"
     pagecolor="#ffffff"
     bordercolor="#666666"
     borderopacity="1.0"
     inkscape:pageshadow="2"
     inkscape:pageopacity="0.0"
     inkscape:pagecheckerboard="0"
     showgrid="false"
     fit-margin-top="0"
     fit-margin-left="0"
     fit-margin-right="0"
     fit-margin-bottom="0"
     inkscape:zoom="0.24525214"
     inkscape:cx="405.70492"
     inkscape:cy="548.41519"
     inkscape:window-width="1440"
     inkscape:window-height="836"
     inkscape:window-x="0"
     inkscape:window-y="0"
     inkscape:window-maximized="1"
     inkscape:current-layer="g66" />
  <g
     inkscape:groupmode="layer"
     inkscape:label="Image"
     id="g8"
     transform="translate(1515.8903,416.02772)">
    <g
       id="g66"
       transform="translate(-1538.3903,-416.15219)"
       style="fill:#c87137">
      <path
         style="fill:#c87137"
         d="m 350.5,466.74226 c -25.33016,-0.87244 -41.60265,-3.09815 -63.8595,-8.73455 C 242.63503,446.86362 201.66862,427.64316 163.70363,400.32868 158.86563,396.84791 154.48892,394 153.97762,394 c -0.5113,0 -17.01831,9.28126 -36.68223,20.62502 -19.663932,11.34375 -37.506305,21.24375 -39.649722,22 -5.251551,1.85285 -16.225199,1.73759 -22.003031,-0.23112 C 49.244395,434.2138 40.774571,426.28251 37.333219,419.24864 33.923251,412.27892 33.544264,402.39755 36.372058,394.18825 39.701793,384.52177 45.382226,379.88627 74,363.48212 88.025,355.44277 99.909468,348.4635 100.40993,347.97263 100.95095,347.44198 97.707505,343.1627 92.409929,337.4177 65.52068,308.25746 32.759225,265.86777 25.62082,251 22.709473,244.93629 22.5,243.76167 22.5,233.5 22.5,220.61486 23.837635,216.92297 33.592321,202.88512 58.759595,166.66718 92.170569,127.81238 119.56611,102.90318 177.43164,50.289338 234.82295,19.650313 302,5.5086908 331.88575,-0.7826388 399.7029,-1.7139695 434.5,3.6890727 479.87416,10.734444 529.77184,31.042893 573.22053,60.148577 579.66682,64.46686 585.36697,68 585.88754,68 586.4081,68 605.65887,57.153552 628.66701,43.896783 684.73636,11.590897 678.64385,14.51055 690,14.504805 c 8.58255,-0.0043 9.99717,0.270765 14.64807,2.848647 6.06484,3.361592 11.33299,8.584697 14.25364,14.131739 C 720.66235,34.829106 721,37.232249 721,46.419467 721,66.145299 719.47695,67.677809 673.75,93.963054 655.1875,104.63334 640,113.77889 640,114.2865 c 0,0.5076 5.23956,6.38829 11.64346,13.06821 20.17739,21.04703 45.51876,52.4934 62.77832,77.90227 4.45238,6.55462 5.98382,9.84236 7.12482,15.29576 1.8325,8.75841 1.84647,17.06934 0.0432,25.68812 -1.58452,7.57319 -6.09341,14.81461 -24.24974,38.94584 C 646.91369,352.20742 592.52194,400.17879 532.5,430.5691 c -42.51315,21.52526 -84.4223,33.50172 -124,35.43572 -30.29975,1.48063 -34.77163,1.53749 -58,0.73744 z M 398,401.96212 C 472.44389,395.28777 537.8629,361.97544 598.50004,299.86453 619.26575,278.59412 653,237.63694 653,233.69545 c 0,-1.78605 -16.94176,-24.28263 -29.86537,-39.65755 -11.49335,-13.67338 -40.57372,-43.7251 -43.08222,-44.52126 -1.16911,-0.37107 -18.82965,9.26769 -51.89357,28.32242 -27.56673,15.88671 -50.72887,29.38913 -51.47141,30.00539 -1.13291,0.94023 -1.12581,2.45036 0.0442,9.38801 3.04083,18.03099 -0.12359,42.43333 -7.75836,59.82845 -11.98532,27.30747 -34.85986,49.42281 -61.90865,59.85393 -16.46208,6.34845 -39.65447,8.80241 -57.06461,6.03795 -18.75702,-2.97832 -38.26523,-11.84783 -53.23078,-24.20166 -2.60193,-2.14785 -5.35898,-3.75802 -6.12678,-3.57816 -2.24429,0.52575 -72.60988,41.25516 -72.62694,42.03834 -0.0205,0.93937 14.91132,9.72741 25.93389,15.26327 46.44888,23.32804 102.68618,34.09268 154.0506,29.48754 z M 210.12835,285.09092 c 43.61312,-25.16355 48.34434,-28.13937 48.094,-30.25 -1.17141,-9.8763 -1.31197,-31.99352 -0.24561,-38.64969 3.45834,-21.58704 13.66773,-42.25728 28.86083,-58.43252 13.71067,-14.59697 33.48964,-26.36569 52.68591,-31.34873 13.33844,-3.46245 33.00429,-4.33078 46.14723,-2.0376 17.72174,3.09208 36.36005,11.33391 49.40817,21.84821 3.26216,2.62868 6.3455,4.77941 6.85187,4.77941 1.63147,0 78.28786,-44.58448 78.33216,-45.55913 0.0611,-1.34341 -14.70557,-9.462842 -28.82113,-15.847296 C 432.68743,63.019032 365.10993,57.06619 302.27725,72.930235 229.31711,91.351271 163.45175,139.62154 103.16176,218.85457 97.572792,226.19959 93,232.78008 93,233.47788 c 0,1.64671 17.53538,24.82012 29.86537,39.46778 C 132.93941,284.91332 159.67561,313 160.9938,313 c 0.4196,0 22.53015,-12.55909 49.13455,-27.90908 z m 169.3549,-8.27204 c 6.88111,-1.76479 13.70927,-5.85083 19.52712,-11.68522 5.23499,-5.24987 11.62575,-15.85799 10.83675,-17.98808 -0.19092,-0.51542 -12.15061,5.86499 -26.57709,14.17868 -14.42648,8.31369 -25.90148,15.43471 -25.5,15.82448 1.93094,1.8746 13.82213,1.69396 21.71322,-0.32986 z M 350.5,204.28522 c 12.1,-6.92836 22.675,-13.24511 23.5,-14.03722 1.30885,-1.25667 0.22563,-1.39211 -8.5,-1.06273 -8.66131,0.32694 -10.89419,0.7969 -16.67961,3.51062 -9.80101,4.59728 -19.6403,14.43983 -22.83502,22.84259 -1.37298,3.61121 -1.73798,3.77876 24.51463,-11.25326 z"
         id="path80" />
      <path
         style="fill:#c87137"
         d="m 337.5,465.95787 c -6.05,-0.41139 -16.625,-1.71892 -23.5,-2.90563 -52.78653,-9.11155 -101.60974,-29.47212 -146.78345,-61.21258 -6.2059,-4.36046 -11.85281,-8.14659 -12.54869,-8.41362 -0.69587,-0.26703 -18.05713,9.18162 -38.58057,20.997 -39.605257,22.80081 -43.407922,24.46073 -52.95656,23.11626 -10.489713,-1.47698 -20.869611,-9.37301 -25.454886,-19.36363 -3.321597,-7.23726 -3.058576,-18.87816 0.594624,-26.31718 1.523757,-3.10283 4.673757,-7.37783 7,-9.5 C 47.596711,380.23632 61.308738,371.75 75.74164,363.5 c 14.432902,-8.25 26.1329,-15.52516 26,-16.16703 -0.1329,-0.64187 -5.830929,-7.30491 -12.662282,-14.80676 C 60.707492,301.36964 30.049019,260.64197 25.022591,247.43121 22.187595,239.9801 21.948274,227.90221 24.488955,220.5 28.925208,207.57508 64.286249,161.16653 93.613873,129.77903 165.36156,52.99205 249.73914,8.5936818 337.47718,1.4613803 c 33.3435,-2.7105222 76.14029,-1.19279617 101.13122,3.5864717 48.52618,9.280152 92.02822,27.523032 136.03043,57.045291 9.50606,6.37787 10.85866,7.001214 13.03769,6.008382 1.3372,-0.609266 21.86951,-12.293321 45.62737,-25.964566 C 657.06175,28.465714 678.3,16.689382 680.5,15.967333 694.49139,11.3753 711.72227,18.774715 718.44278,32.261008 720.6229,36.635955 721,38.73568 721,46.5 c 0,7.783809 -0.3747,9.859235 -2.57839,14.281466 -1.41811,2.845785 -4.74522,7.096639 -7.39356,9.446344 C 708.3797,72.577514 691.26854,83.05 673.00323,93.5 c -18.2653,10.45 -33.45164,19.60236 -33.74742,20.33858 -0.31529,0.78479 2.97295,4.92195 7.94807,10 10.48047,10.69733 22.63784,24.37022 33.93157,38.16142 10.29763,12.57484 31.04672,40.68558 35.68493,48.34573 5.82145,9.61432 7.61387,22.85411 4.72862,34.92825 -1.65315,6.9181 -3.19458,9.6269 -14.3548,25.22602 -65.55222,91.62518 -139.54449,151.4254 -221.6942,179.17222 -26.03505,8.79357 -54.94585,14.81292 -78.5,16.34403 -16.57496,1.07744 -53.24961,1.04663 -69.5,-0.0584 z M 394,402.97861 C 489.18111,395.81159 569.53945,345.83396 645.0873,246.81876 649.98929,240.39407 654,234.48859 654,233.69545 654,231.92956 637.21612,209.61679 624.1407,194 c -5.29571,-6.325 -17.3369,-19.33248 -26.75819,-28.90551 -13.75954,-13.98115 -17.49879,-17.26498 -19.00607,-16.69122 -1.03204,0.39286 -24.73567,13.85034 -52.67472,29.90551 L 474.90344,207.5 l 0.52177,4 c 1.64255,12.59202 1.73719,31.37443 0.20241,40.17071 -6.11333,35.03751 -28.18135,64.60204 -60.12762,80.55299 -38.24387,19.09539 -85.43258,13.35129 -118.76136,-14.45635 -3.24667,-2.70884 -5.31446,-3.76307 -6.5,-3.31394 C 286.54714,315.85191 217,356.32163 217,357.07122 c 0,1.21766 4.40119,4.04629 17.5,11.24719 48.1263,26.45681 104.82304,38.77731 159.5,34.6602 z M 210.5,285.80803 c 25.85,-14.88626 47.50329,-27.46386 48.11842,-27.95022 0.79979,-0.63237 0.83248,-2.23376 0.11475,-5.62105 -1.86749,-8.81344 -1.2822,-31.72378 1.0738,-42.03294 9.88084,-43.23563 44.21775,-76.49206 87.44339,-84.69183 11.376,-2.15799 31.02705,-1.94986 42.39,0.44896 16.67677,3.52061 34.65018,12.06859 46.64832,22.18549 3.23621,2.72879 5.34349,3.82698 6.5,3.38741 4.34657,-1.65205 79.14679,-45.15214 79.17705,-46.04544 C 522.00661,104.28174 505.12332,94.950642 492.5,89.203221 440.34599,65.457412 382.06429,57.965704 324.19594,67.568904 259.34449,78.330943 199.37432,112.21616 144.5,169.10333 126.06353,188.21607 92,229.98415 92,233.47788 c 0,1.63275 17.43456,24.69124 29.86537,39.49916 14.68881,17.49771 38.15973,41.22699 40.05904,40.5 C 162.79099,313.14535 184.65,300.6943 210.5,285.80803 Z m 170.40904,-8.70259 c 11.81994,-3.67878 21.39563,-11.82305 27.0342,-22.99301 C 410.7376,248.57685 411.74786,245 410.51701,245 409.28026,245 356,276.30036 356,277.02691 c 0,2.51519 16.90876,2.5685 24.90904,0.0785 z m -28.07549,-73.38653 c 16.79858,-9.6632 23.92061,-14.25937 23,-14.84294 -2.44055,-1.54707 -15.43829,-0.94353 -21.70865,1.00803 -8.341,2.59601 -13.75846,5.97795 -19.78728,12.35253 C 329.65956,207.18289 324,216.36148 324,219.00194 c 0,1.34389 -0.90156,1.82176 28.83355,-15.28303 z"
         id="path78" />
      <path
         style="fill:#c87137"
         d="m 345,466.31057 c -9.9456,-0.57769 -30.22744,-3.37761 -42.4703,-5.86305 -47.65541,-9.6746 -92.91718,-29.45767 -135.1209,-59.05882 -6.54984,-4.59397 -12.59721,-8.36078 -13.4386,-8.37069 -0.8414,-0.01 -17.2664,9.05862 -36.5,20.15229 C 98.236588,424.26396 80.25,434.20625 77.5,435.26428 c -6.814661,2.62186 -17.139304,2.10018 -23.922911,-1.20877 -14.97596,-7.30507 -21.560641,-24.33349 -15.585189,-40.30432 3.448091,-9.21584 7.786207,-12.65932 37.281024,-29.59262 14.697132,-8.43779 26.980976,-15.76037 27.297436,-16.27241 0.31646,-0.51204 -3.342209,-5.0834 -8.130368,-10.15857 C 76.206594,318.40123 57.441752,295.36215 39.343247,270.08096 26.782502,252.53528 23.917425,246.39806 23.29743,235.70955 22.622484,224.07372 24.746638,218.12324 34.83967,203.37579 68.625852,154.00906 112.6179,106.98602 155.58951,74.306465 201.94119,39.056393 256.39056,14.774864 310.90824,5.0425567 346.29778,-1.2750622 396.48533,-1.4618813 433,4.5880799 481.87196,12.685467 532.76346,33.623969 575.91424,63.387883 l 9.41424,6.493615 3.08576,-1.576295 C 590.11141,67.438241 610.625,55.690455 634,42.199012 657.375,28.70757 678.525,17.035373 681,16.260798 c 6.53489,-2.045157 16.29997,-1.16574 22.6076,2.03598 6.42549,3.261552 13.72383,11.292835 15.80037,17.387159 2.23123,6.54828 2.03522,16.056501 -0.46896,22.749529 -3.53194,9.439955 -7.37537,12.343227 -44.93901,33.946324 -18.975,10.91265 -34.90911,20.22307 -35.40914,20.68983 -0.52659,0.49156 1.90313,3.91652 5.77429,8.13952 3.67589,4.00997 11.23028,12.24086 16.78754,18.29086 17.67457,19.24172 51.70368,63.43339 57.36756,74.5 4.45597,8.70648 5.66222,20.96831 3.03408,30.84218 -1.73857,6.53177 -5.2326,12.38574 -17.24761,28.89705 -53.42165,73.41326 -110.74012,125.00095 -174.06756,156.66403 -40.22363,20.11141 -82.6577,32.15447 -125.18905,35.52945 -12.18295,0.96675 -46.22388,1.18095 -60.05011,0.37786 z m 59.915,-63.82842 c 91.69726,-10.2436 170.22588,-61.53366 243.02242,-158.72729 l 7.29897,-9.74514 -1.7913,-2.75486 c -10.54453,-16.21661 -37.20898,-47.99981 -57.15488,-68.12684 -12.53226,-12.64607 -15.64491,-15.29337 -17.55284,-14.92865 -2.37117,0.45328 -101.21169,56.96645 -103.49977,59.17715 -0.94466,0.91271 -1.02566,2.46807 -0.32182,6.17938 3.01251,15.8849 2.09057,34.29687 -2.51275,50.18197 -10.67478,36.83643 -40.61031,65.99849 -77.92651,75.91308 -8.77775,2.33217 -11.95915,2.6603 -26.47652,2.73079 -13.94847,0.0677 -17.86699,-0.26528 -25.33991,-2.15342 -17.17908,-4.34053 -30.92795,-11.09086 -44.03442,-21.61973 l -6.87434,-5.52238 -3.62566,1.87046 c -9.50812,4.90516 -71.66414,41.20456 -71.94106,42.01391 -0.65079,1.90201 22.40125,14.81127 40.93595,22.92432 28.0845,12.29322 58.47628,20.20036 88.37944,22.994 15.05288,1.40628 45.02188,1.20111 59.415,-0.40675 z m -193.64887,-116.63532 48.91591,-28.15317 -0.58736,-3.09683 c -1.42965,-7.5379 -1.81255,-28.68791 -0.66429,-36.6934 3.40595,-23.74577 14.77163,-45.61279 32.73408,-62.97877 13.72694,-13.2711 30.4807,-22.70017 49.05818,-27.61008 8.27755,-2.1877 12.07827,-2.60176 24.77735,-2.69933 16.62083,-0.1277 24.22929,1.01025 37.5,5.60863 10.85196,3.76028 21.16029,9.27931 30.59656,16.38125 4.9509,3.72615 8.09966,5.44607 9.3648,5.11523 2.35055,-0.61469 78.84686,-44.60104 79.55338,-45.74422 0.75085,-1.21488 -3.675,-4.07398 -16.52983,-10.678259 C 447.13156,65.061451 381.30169,55.778122 316.07925,68.517382 236.61651,84.038059 164.31438,135.13403 99.796798,221.36438 l -8.876933,11.86437 1.713167,2.63563 c 4.154916,6.39213 20.243748,27.08543 30.187468,38.82681 C 137.0066,291.44191 158.7913,314 160.78164,314 c 0.86272,0 23.58075,-12.66893 50.48449,-28.15317 z m 164.93465,-6.95191 c 14.27637,-2.97716 26.30351,-12.43207 32.55242,-25.59051 2.02476,-4.26358 3.14734,-7.78369 2.63647,-8.26733 -1.13666,-1.0761 -55.88967,30.44406 -55.88967,32.17451 0,2.46907 12.18246,3.45971 20.70078,1.68333 z m -23.78304,-74.37678 c 14.06937,-8.09144 25.35683,-15.07388 25.08326,-15.51653 -1.09443,-1.77082 -12.06812,-2.12229 -19.27665,-0.61741 -15.69871,3.27733 -28.58315,14.27831 -34.28381,29.27218 -0.87152,2.29229 -0.76217,2.53024 0.95624,2.08086 1.06716,-0.27907 13.45159,-7.12766 27.52096,-15.2191 z"
         id="path76" />
      <path
         style="fill:#c87137"
         d="m 349.5,466.34486 c -68.14515,-5.43341 -126.28619,-26.28592 -182,-65.275 -14.09086,-9.86093 -13.09006,-9.35248 -15.72933,-7.99112 C 150.5218,393.72292 134.2,403.07034 115.5,413.85079 96.8,424.63124 79.025,434.29808 76,435.33265 61.099171,440.42884 43.813753,431.71681 37.934194,416.14709 33.770465,405.12109 37.205421,390.53781 45.779782,382.83825 47.825902,381.00089 61.5375,372.5733 76.25,364.11028 90.9625,355.64726 103,348.16498 103,347.48298 103,346.80099 98.426725,341.35082 92.837166,335.3715 66.011697,306.67546 30.204682,259.60689 25.797071,247.24682 23.352786,240.39242 22.968422,229.79066 24.888496,222.18595 26.81758,214.54555 42.088248,192.26552 64.426271,164.5 85.417954,138.40795 118.14256,104.9719 140.65536,86.613686 200.24525,38.020689 260.70472,11.33224 331.5,2.3696789 348.95363,0.16007912 393.70429,-0.13309353 411,1.8488547 470.91791,8.7149618 522.17837,27.896021 574.59643,63.0647 c 6.98453,4.686106 11.12983,6.872813 12.23381,6.453521 0.91837,-0.348798 21.97082,-12.319751 46.78322,-26.602118 50.74422,-29.209084 51.52136,-29.534333 63.33647,-26.507443 11.36463,2.911485 19.56003,10.657975 22.699,21.455654 3.25192,11.186218 -0.51911,24.371301 -9.10937,31.850125 -2.39148,2.082058 -19.57871,12.523286 -38.19385,23.202728 -18.61514,10.679443 -34.15715,19.888843 -34.53781,20.465333 -0.38065,0.57649 3.45031,5.33876 8.51324,10.58283 27.48754,28.47094 65.06739,76.32012 73.06768,93.03467 2.84083,5.93517 3.11118,7.36897 3.11118,16.5 0,9.14484 -0.2671,10.55585 -3.12338,16.5 -4.89977,10.19679 -29.21633,43.24143 -47.83156,65 C 626.78311,367.32038 580.88597,404.6312 530,430.06516 c -41.30631,20.64583 -81.867,31.97887 -128.5,35.90413 -10.95698,0.92228 -42.3037,1.14869 -52,0.37557 z M 409,402.41922 c 59.85724,-7.57216 113.709,-32.57384 164.09031,-76.18196 13.81854,-11.9608 41.01107,-39.806 53.49166,-54.77557 C 639.99695,255.37141 655,235.41828 655,233.66748 655,231.95213 638.33159,209.78431 625.17327,194 c -14.27289,-17.12131 -44.20645,-47.22459 -46.39043,-46.65346 -0.9712,0.25397 -24.99417,13.85591 -53.38438,30.22652 l -51.61857,29.76475 0.86005,6.0811 c 0.47303,3.3446 0.81735,13.28109 0.76515,22.08109 -0.0819,13.81412 -0.44522,17.31411 -2.65914,25.61888 -9.91031,37.17529 -38.93691,66.72049 -75.94239,77.2992 -34.50006,9.86249 -72.04266,1.73002 -100.10569,-21.68486 -4.26815,-3.56121 -5.07526,-3.8823 -7.25842,-2.88759 -5.13861,2.34131 -71.02798,40.52957 -72.81119,42.20003 -1.80639,1.69216 -1.50961,1.96771 8.5,7.89181 55.46071,32.82394 120.6869,46.47486 183.87174,38.48175 z M 211.22024,286.35231 c 26.27804,-15.14748 48.02941,-27.94723 48.33637,-28.4439 0.30696,-0.49667 0.001,-6.30505 -0.67908,-12.9075 -3.36632,-32.66364 7.91589,-64.77401 30.86789,-87.85324 15.96865,-16.05718 34.36009,-25.98779 56.75458,-30.64511 11.16766,-2.32251 31.25381,-2.16369 43,0.33999 16.60924,3.54024 34.84555,12.23338 46.78868,22.30389 3.24469,2.73594 5.34046,3.82663 6.5,3.38275 0.94123,-0.36031 19.39166,-10.83049 41.00096,-23.26707 25.98914,-14.95726 39.19159,-23.09447 39,-24.03729 C 522.43125,103.46117 508.43492,95.642448 492.5,88.304218 436.4073,62.472832 367.89254,55.744752 307,70.088305 263.46859,80.342355 222.38334,101.00382 182.97645,132.45884 168.19892,144.25442 134.34433,177.7723 120.81704,194 108.22428,209.10662 91,231.92442 91,233.5 c 0,1.57941 17.26111,24.43057 29.83717,39.5 13.99682,16.77187 39.18281,42.20631 41.07501,41.48021 0.84139,-0.32287 23.03001,-12.98043 49.30806,-28.1279 z M 379.5399,278.448 c 12.11439,-3.15457 23.22595,-12.25874 28.96655,-23.73351 C 411.94346,247.84429 412.8734,244 411.09828,244 409.18299,244 354.5,276.09639 354.5,277.22057 c 0,2.9092 15.63771,3.67575 25.0399,1.22743 z m -27.79933,-73.08537 c 13.88231,-7.98771 25.51488,-14.96693 25.85014,-15.5094 1.06249,-1.71915 -0.51561,-2.28361 -7.48555,-2.67745 -18.24997,-1.03121 -35.36059,8.52562 -43.85516,24.49451 -3.69842,6.95265 -4.19682,9.90301 -1.5,8.87956 0.9625,-0.36527 13.10826,-7.19952 26.99057,-15.18722 z"
         id="path74" />
      <path
         style="fill:#c87137"
         d="M 337.58901,464.8934 C 295.53238,460.43289 258.3369,449.91272 221.28698,431.99916 199.18076,421.31084 176.22384,407.55198 160.1062,395.33142 157.68961,393.49914 154.98585,392 154.09786,392 c -0.888,0 -16.91078,8.83658 -35.6062,19.63685 -43.722534,25.25835 -42.547461,24.7212 -52.843746,24.15585 -9.308505,-0.51111 -14.447002,-2.65845 -20.25154,-8.46299 -8.640648,-8.64065 -11.345192,-22.94558 -6.447041,-34.09982 3.600211,-8.19853 10.172489,-13.20466 38.944657,-29.66433 C 92.252295,355.35162 104,348.11757 104,347.48988 c 0,-0.62769 -1.17697,-2.23219 -2.61549,-3.56557 C 91.523877,334.78444 63.765142,301.87305 48.311712,281 26.980212,252.1874 24,246.28941 24,232.88592 24,220.52126 28.096676,212.82762 50.475912,183.16362 124.98263,84.403904 208.98081,26.179146 304.5,7.0825494 328.66954,2.2504726 345.28747,0.68332538 373,0.62268415 389.26098,0.58710148 402.9774,1.052818 408.5,1.8280229 427.32363,4.4702883 431.79956,5.1785661 442,7.1291035 487.98992,15.92334 535.72971,36.370744 576.21788,64.61589 580.46272,67.577151 584.70565,70 585.64662,70 c 0.94096,0 21.99292,-11.641882 46.78211,-25.870848 24.7892,-14.228966 46.60092,-26.378966 48.47049,-27 4.8522,-1.611801 13.96561,-1.394549 19.41684,0.462875 6.32279,2.15439 13.97205,9.253583 17.30024,16.056159 5.48158,11.203938 2.76987,26.258431 -6.28086,34.869273 C 709.22595,70.524424 691.975,81.108142 673,92.036831 c -18.975,10.928689 -34.93927,20.552859 -35.47615,21.387049 -0.76607,1.1903 1.5053,4.05174 10.55451,13.29641 26.43766,27.00871 63.37772,74.25324 71.20874,91.07249 2.77381,5.95753 3.12154,7.71318 3.11101,15.70722 -0.0174,13.20568 -2.79697,18.52253 -25.74892,49.25347 -17.69089,23.68677 -35.16259,43.84481 -56.60631,65.30973 -26.48477,26.51097 -44.88947,41.80175 -71.54288,59.43842 -68.85956,45.56465 -150.68092,65.90095 -230.91099,57.39178 z M 414.5,402.13329 c 27.75287,-4.25333 53.19296,-11.64271 77.06569,-22.38464 54.87586,-24.69232 106.50781,-68.91689 154.66746,-132.47809 l 10.02381,-13.22945 -1.80158,-2.77055 C 643.7554,214.81559 617.02703,182.96668 596.84577,162.62427 583.9334,149.60879 580.6818,146.82844 578.7979,147.19207 c -2.67479,0.51628 -101.42949,57.17997 -104.07845,59.71836 -1.60255,1.53565 -1.65584,2.25023 -0.53306,7.1479 1.69102,7.37641 1.64614,30.76619 -0.0757,39.44167 -6.6489,33.50083 -28.0775,61.92559 -58.00532,76.94337 -17.66147,8.86251 -33.37747,12.14887 -53.9524,11.28194 -24.06667,-1.01405 -45.1553,-9.02667 -63.64392,-24.18148 l -6.69639,-5.48892 -3.65634,1.90325 c -14.25877,7.42214 -72.71161,42.03061 -72.93912,43.18543 -0.32805,1.66515 13.30372,9.80652 31.32376,18.70763 30.35089,14.99202 66.35895,24.98572 101.41642,28.14718 15.72835,1.41838 51.69595,0.41025 66.5426,-1.86511 z m -203,-115.4753 49,-28.30165 -0.5,-4.92817 C 259.725,250.71768 259.52224,241.075 259.54943,232 c 0.0443,-14.78017 0.33439,-17.54232 2.78336,-26.5 11.4303,-41.80905 46.92703,-73.33236 89.57795,-79.55081 12.12648,-1.76803 30.16742,-0.72146 42.58926,2.47062 12.45966,3.2018 29.58398,11.57954 38.92843,19.04496 3.81063,3.04438 7.60585,5.53523 8.4338,5.53523 0.82796,0 19.66047,-10.45486 41.85002,-23.23303 27.02678,-15.56375 40.25235,-23.71225 40.06506,-24.68477 C 523.3948,103.09596 494.31549,88.185173 478.99849,82.121287 456.43279,73.187691 431.40494,66.967276 405.5,63.853992 387.43255,61.682626 349.50989,62.207024 332,64.870357 c -18.69728,2.84394 -40.24162,8.141425 -56,13.769706 -15.31218,5.468912 -44.75412,19.912003 -59.2557,29.068577 -42.09045,26.57672 -81.88558,65.05173 -119.112794,115.16149 -8.975748,12.08182 -9.543806,8.65426 4.527984,27.32106 18.66255,24.75663 54.98502,64.83502 58.717,64.78863 0.89293,-0.0111 23.67351,-12.75593 50.62351,-28.32183 z m 171.10732,-8.69491 c 6.86797,-2.36293 15.46207,-8.05794 19.78998,-13.11414 6.02102,-7.0342 11.87509,-19.94453 9.66346,-21.31139 -0.90541,-0.55957 -53.65933,29.15977 -57.33439,32.29978 -2.35533,2.01243 -1.07654,3.0991 4.88698,4.15279 6.45344,1.14024 16.31487,0.27091 22.99397,-2.02704 z m -27.1904,-74.24473 c 12.60431,-7.27009 23.08583,-13.72541 23.29227,-14.34514 0.59422,-1.78389 -2.51947,-2.47321 -11.17153,-2.47321 -14.154,0 -25.87416,5.14722 -35.19278,15.45585 -4.91525,5.43745 -10.95086,16.85463 -9.85093,18.63437 0.76264,1.23397 1.60671,0.79117 32.92297,-17.27187 z"
         id="path72" />
      <path
         style="fill:#c87137"
         d="m 353,466.02651 c -3.025,-0.45493 -10.73521,-1.32305 -17.1338,-1.92914 -59.52396,-5.63833 -118.16478,-28.43596 -173.07954,-67.28768 l -8.71334,-6.16462 -32.78666,18.91074 C 76.094625,435.62172 76.349027,435.5 67.06338,435.5 c -6.253066,0 -8.547686,-0.48337 -13.244983,-2.79009 -17.886666,-8.78366 -22.456477,-32.88593 -9.027369,-47.61247 2.568424,-2.81657 12.1647,-8.93289 31.206337,-19.8898 16.893101,-9.72061 27.625155,-16.48607 27.828735,-17.54317 0.20839,-1.08207 -3.41624,-5.64586 -9.766434,-12.29697 C 71.627289,311.87213 33.074683,262.25963 27.882949,250.20615 23.199741,239.33329 23.243318,226.32599 27.995843,216.50859 30.610057,211.10834 45.409047,190.13928 57.996431,174 136.6102,73.203062 225.58172,17.318238 329.5,3.4630789 c 26.8172,-3.57546845 61.16548,-4.24132354 76,-1.4732899 2.75,0.5131339 9.275,1.431423 14.5,2.0406425 51.63518,6.0205085 106.43319,27.2976535 154.40936,59.9545535 9.71658,6.613981 10.93209,7.180468 13.19494,6.149448 1.37084,-0.6246 22.15818,-12.474744 46.19407,-26.333655 25.30292,-14.589469 45.80667,-25.770999 48.70163,-26.558992 23.30293,-6.34293 43.99927,17.31232 35.35673,40.41159 -3.5899,9.594872 -7.79574,12.757905 -46.16932,34.722021 -19.09841,10.931473 -34.9815,20.291443 -35.29577,20.799933 -0.31427,0.5085 2.95803,4.61457 7.27176,9.12461 29.90832,31.26929 65.96928,76.97383 75.11303,95.20006 3.23813,6.45455 3.51155,7.7013 3.50902,16 -0.002,8.14073 -0.31096,9.61534 -3.2309,15.44511 -3.38664,6.76156 -16.72615,26.01185 -29.08735,41.97605 -74.35829,96.03203 -157.91951,151.94987 -253.36239,169.54611 -26.82697,4.94592 -69.02527,7.75187 -83.60481,5.55924 z M 408,403.3913 C 489.47018,393.84332 562.69623,349.71552 628.52094,270.5 639.81094,256.91326 656,235.20223 656,233.64803 656,231.48064 637.07574,206.64406 622.31818,189.44333 608.53967,173.38372 581.63959,146 579.64215,146 c -0.67007,0 -24.82617,13.62072 -53.68023,30.26827 L 473.5,206.53655 l 0.27724,3.98172 c 0.15248,2.18995 0.37748,12.30673 0.5,22.48173 0.2005,16.65159 -0.009,19.34707 -2.0932,26.97795 -5.21304,19.08322 -13.5843,34.08556 -26.72455,47.89372 -38.53035,40.4888 -99.44454,45.15513 -144.34455,11.05751 -8.40305,-6.38138 -9.63377,-7.01382 -11.76193,-6.04416 -3.78873,1.72626 -73.74674,42.15742 -74.85301,43.26014 -1.26664,1.26259 1.62053,3.6676 10.95201,9.123 55.3806,32.37678 118.71695,45.60388 182.54799,38.12314 z m -195.6621,-116.68789 48.85304,-28.1733 -0.84547,-7.51505 c -1.31698,-11.70613 -0.8758,-30.65573 0.90834,-39.01506 7.49816,-35.13159 31.16229,-64.06642 63.73079,-77.92557 36.91499,-15.70873 80.66995,-9.35389 111.27676,16.16152 3.25312,2.71196 5.3121,3.75939 6.5,3.30662 2.76034,-1.05212 78.54601,-44.70796 80.49674,-46.36962 1.61827,-1.37848 1.63026,-1.63883 0.15078,-3.27364 C 521.01783,101.25724 491.96129,86.699379 478.895,81.597047 444.17355,68.038463 411.4054,62.003571 372.49387,62.001213 324.20054,61.998285 284.05898,71.676838 240.60689,93.800554 190.54521,119.28955 143.53821,161.34992 98.153373,221.26345 93.669018,227.18334 90,232.66027 90,233.43439 c 0,1.753 16.15982,23.36083 28.56331,38.19296 20.21089,24.16823 40.69298,44.87201 43.37382,43.84328 0.85125,-0.32666 23.5316,-13.2719 50.40077,-28.76722 z m 166.40617,-7.1232 c 8.35589,-2.22447 14.0398,-5.44648 20.85554,-11.82227 C 408.56987,259.3667 416.50182,243 411.59828,243 c -1.94252,0 -56.87208,31.63748 -58.06291,33.44218 -0.53055,0.80404 -0.66588,1.76064 -0.30075,2.12578 2.45632,2.45631 17.79823,3.0651 25.50945,1.01225 z M 351.7858,206.34508 c 15.00821,-8.61021 27.54692,-16.07442 27.8638,-16.58713 1.14527,-1.85309 -1.52204,-2.90251 -8.76666,-3.44915 -13.99509,-1.05599 -26.71024,3.63289 -36.81133,13.57469 C 326.22754,207.60385 319.1829,222 323.24907,222 c 0.687,0 13.52852,-7.04471 28.53673,-15.65492 z"
         id="path70" />
      <path
         style="fill:#fdb428;fill-opacity:0.69999999"
         d="m 367.29159,466.2575 c 3.73537,-0.19293 9.58537,-0.19149 13,0.003 3.41462,0.19468 0.35841,0.35253 -6.79159,0.35078 -7.15,-0.002 -9.94379,-0.16103 -6.20841,-0.35396 z M 338.5,463.87472 c -4.95,-0.47025 -15.75,-1.9886 -24,-3.37411 -55.26233,-9.28085 -103.74648,-30.28305 -155.67354,-67.43415 l -4.67355,-3.34368 -5.32645,3.03654 c -2.92955,1.6701 -19.8885,11.40346 -37.68655,21.62971 -17.798043,10.22624 -34.223043,19.09736 -36.499996,19.7136 C 63.760189,437.04712 50.773288,432.5942 43.879643,423.55561 39.42144,417.71025 38,413.17444 38,404.7937 c 0,-5.22603 0.592056,-7.65906 3.070854,-12.61958 1.688969,-3.37992 4.5969,-7.3893 6.462069,-8.90972 1.865168,-1.52042 15.553329,-9.7394 30.418136,-18.2644 19.796632,-11.35341 27.029861,-15.98893 27.037931,-17.32764 0.006,-1.00521 -5.140277,-7.30521 -11.436294,-14 C 79.98356,319.24377 67.598278,304.48175 53.555769,286 28.287895,252.74422 24.205563,244.6873 25.298824,230.23189 26.014778,220.76533 28.888512,214.83046 40.749987,198.32195 102.2968,112.66262 170.19996,55.420714 245.5,25.719069 274.95206,14.101881 303.49743,7.135201 336.33257,3.5507951 343.02466,2.8202621 347.6,2.0926273 346.5,1.9338288 345.4,1.7750303 350.125,1.3459406 357,0.9802962 c 14.16646,-0.75343793 44.68596,-0.0222765 42.98371,1.0297689 -0.61638,0.3809489 3.06778,1.0088226 8.18703,1.395275 5.11925,0.3864524 15.83757,1.8072531 23.8185,3.1573349 51.3568,8.687705 99.38752,28.468241 143.8353,59.235816 7.95086,5.503739 9.64502,6.305239 11.5,5.440626 1.1965,-0.557695 22.19694,-12.551646 46.66765,-26.653224 24.4707,-14.101578 46.2957,-26.127272 48.5,-26.723764 5.26263,-1.424089 14.12245,-0.568528 19.71062,1.903383 14.7305,6.516001 21.18736,25.129538 13.82681,39.859294 -1.6337,3.269338 -4.2212,7.122434 -5.75,8.562436 C 708.75083,69.627245 691.75,79.87097 672.5,90.951076 653.25,102.03118 636.85863,111.7324 636.07473,112.50935 c -1.23132,1.22039 -0.34679,2.5438 6.5,9.72509 33.48345,35.11931 71.34701,83.60129 76.32034,97.72357 0.976,2.77147 2.01056,4.80303 2.29901,4.51457 0.99265,-0.99264 1.63485,10.03377 0.84611,14.52742 -0.43442,2.475 -0.86242,4.05 -0.9511,3.5 -0.0887,-0.55 -1.0115,1.36258 -2.05071,4.25019 -4.4038,12.23666 -40.5669,59.44427 -67.6695,88.33631 -71.88898,76.63547 -151.15966,118.88681 -240.92309,128.41221 -15.24893,1.61816 -56.59561,1.83425 -71.94579,0.37601 z m 75.06142,-60.24488 c 51.81835,-7.86831 96.3236,-26.82009 139.89341,-59.57115 17.72939,-13.32703 28.40863,-22.7112 45.65464,-40.1181 C 619.77764,283.07961 657,237.88404 657,233.64964 657,231.6451 635.99483,204.16511 622.10631,188 609.74812,173.61608 586.30237,149.54079 581.7676,146.57816 l -2.7324,-1.78512 -51.7676,29.75419 c -28.47218,16.3648 -52.60927,30.54054 -53.63799,31.50164 -1.68685,1.57599 -1.76536,2.37076 -0.80008,8.0993 3.9421,23.39482 1.26142,44.28482 -8.27362,64.47444 -12.51207,26.49325 -34.0504,46.30066 -60.70664,55.82797 -36.90465,13.19023 -76.44432,5.86836 -107.16606,-19.84478 l -4.81678,-4.0315 -4.18322,2.23542 C 267.84278,323.41207 213.5,355.78683 213.5,357.00445 c 0,2.2944 9.26777,8.08158 28.5,17.7966 20.62935,10.42076 37.81396,16.94427 58.65594,22.26657 13.3548,3.41034 34.95491,7.12267 48.34406,8.30872 10.4352,0.92437 54.89202,-0.27826 64.56142,-1.7465 z M 213,287.25053 l 48.5,-28.05131 -0.27915,-3.84961 C 261.06731,253.23233 260.86521,243.625 260.77174,234 c -0.15713,-16.17858 0.0338,-18.25332 2.52901,-27.47652 9.24321,-34.16672 34.25859,-61.74345 66.77272,-73.60964 14.11251,-5.15043 20.91536,-6.26985 37.92653,-6.24091 13.47083,0.0229 16.80914,0.37005 25.5,2.65152 12.47429,3.27469 29.3569,11.57446 39.93313,19.63181 4.36323,3.32406 8.15147,6.04374 8.41831,6.04374 1.38764,0 83.16203,-47.68775 83.58365,-48.74284 0.82143,-2.05561 -2.76183,-4.55977 -17.18717,-12.011251 C 477.30775,78.263608 449.38508,69.168585 415,63.87303 395.41004,60.856031 352.05335,60.568321 333.5,63.332205 243.75072,76.702113 169.30186,126.10952 99.119974,218.87669 93.553989,226.23387 89,232.80786 89,233.48556 c 0,0.67769 3.671583,6.13318 8.159073,12.12331 17.631977,23.53602 32.173937,40.57452 51.009137,59.76627 9.48402,9.66356 10.98832,10.82232 13.50245,10.40092 C 163.2268,315.51523 186.325,302.67874 213,287.25053 Z m 163.11351,-6.24932 c 8.32051,-1.54283 18.90806,-7.24017 25.26156,-13.59367 5.88298,-5.88298 11.25804,-15.37182 12.28206,-21.68208 0.52102,-3.21069 0.34078,-3.72546 -1.30439,-3.72546 -2.02814,0 -59.36976,32.54319 -60.54554,34.36152 -2.66487,4.12119 12.00295,6.92104 24.30631,4.63969 z m -24.6973,-73.57134 C 366.31229,198.8663 379.175,191.18879 380,190.36875 c 1.33298,-1.32497 1.30311,-1.63712 -0.26825,-2.80346 -2.47656,-1.8382 -10.98468,-2.79915 -17.62738,-1.99091 -16.42428,1.99838 -30.64833,12.01059 -38.1242,26.83534 C 320.60455,219.10364 320.12111,223 322.66621,223 c 0.91641,0 13.85391,-7.00656 28.75,-15.57013 z"
         id="path68" />
    </g>
  </g>
</svg>
